<svg width="257" height="32" viewBox="0 0 257 32" fill="none" xmlns="http://www.w3.org/2000/svg">
<path d="M7.27344 14.1797V28.2422H3.75781V8.90625H7.27344V10.6641H9.03125V8.90625H17.8203V10.6641H19.5781V12.4219H21.3359V28.2422H17.8203V14.1797H16.0625V12.4219H14.3047V28.2422H10.7891V12.4219H9.03125V14.1797H7.27344ZM28.3672 28.2422V24.7266H37.1562V22.9688H38.9141V17.6953H37.1562V19.4531H35.3984V21.2109H28.3672V19.4531H26.6094V17.6953H24.8516V7.14844H28.3672V15.9375H30.125V17.6953H33.6406V15.9375H35.3984V14.1797H37.1562V10.6641H38.9141V7.14844H42.4297V24.7266H40.6719V26.4844H38.9141V28.2422H28.3672ZM81.1016 12.4219H79.3438V10.6641H74.0703V12.4219H72.3125V17.6953H74.0703V19.4531H79.3438V17.6953H81.1016V12.4219ZM70.5547 21.2109V28.2422H67.0391V7.14844H70.5547V8.90625H72.3125V7.14844H81.1016V8.90625H82.8594V10.6641H84.6172V19.4531H82.8594V21.2109H81.1016V22.9688H72.3125V21.2109H70.5547ZM93.4062 24.7266H100.438V22.9688H102.195V14.1797H100.438V12.4219H93.4062V14.1797H91.6484V22.9688H93.4062V24.7266ZM91.6484 28.2422V26.4844H89.8906V24.7266H88.1328V12.4219H89.8906V10.6641H91.6484V8.90625H102.195V10.6641H103.953V12.4219H105.711V24.7266H103.953V26.4844H102.195V28.2422H91.6484ZM112.742 17.6953V28.2422H109.227V8.90625H112.742V12.4219H114.5V10.6641H116.258V8.90625H123.289V10.6641H125.047V12.4219H126.805V15.9375H123.289V14.1797H121.531V12.4219H118.016V14.1797H116.258V15.9375H114.5V17.6953H112.742ZM142.625 24.7266H144.383V28.2422H140.867V26.4844H139.109V24.7266H137.352V12.4219H133.836V8.90625H137.352V3.63281H140.867V8.90625H144.383V12.4219H140.867V22.9688H142.625V24.7266ZM161.961 28.2422H158.445V12.4219H153.172V8.90625H158.445V5.39062H160.203V3.63281H167.234V7.14844H161.961V8.90625H167.234V12.4219H161.961V28.2422ZM177.781 24.7266H184.812V22.9688H186.57V14.1797H184.812V12.4219H177.781V14.1797H176.023V22.9688H177.781V24.7266ZM176.023 28.2422V26.4844H174.266V24.7266H172.508V12.4219H174.266V10.6641H176.023V8.90625H186.57V10.6641H188.328V12.4219H190.086V24.7266H188.328V26.4844H186.57V28.2422H176.023ZM204.148 3.63281V28.2422H200.633V3.63281H204.148ZM225.242 5.39062V8.90625H221.727V5.39062H225.242ZM227 24.7266H228.758V28.2422H225.242V26.4844H223.484V24.7266H221.727V15.9375H218.211V12.4219H225.242V22.9688H227V24.7266ZM241.062 24.7266H248.094V22.9688H249.852V14.1797H248.094V12.4219H241.062V14.1797H239.305V22.9688H241.062V24.7266ZM239.305 28.2422V26.4844H237.547V24.7266H235.789V12.4219H237.547V10.6641H239.305V8.90625H249.852V10.6641H251.609V12.4219H253.367V24.7266H251.609V26.4844H249.852V28.2422H239.305Z" fill="#FFFEFE"/>
<path d="M7.27344 14.1797V11.1797H4.27344V14.1797H7.27344ZM7.27344 28.2422V31.2422H10.2734V28.2422H7.27344ZM3.75781 28.2422H0.757812V31.2422H3.75781V28.2422ZM3.75781 8.90625V5.90625H0.757812V8.90625H3.75781ZM7.27344 8.90625H10.2734V5.90625H7.27344V8.90625ZM7.27344 10.6641H4.27344V13.6641H7.27344V10.6641ZM9.03125 10.6641V13.6641H12.0312V10.6641H9.03125ZM9.03125 8.90625V5.90625H6.03125V8.90625H9.03125ZM17.8203 8.90625H20.8203V5.90625H17.8203V8.90625ZM17.8203 10.6641H14.8203V13.6641H17.8203V10.6641ZM19.5781 10.6641H22.5781V7.66406H19.5781V10.6641ZM19.5781 12.4219H16.5781V15.4219H19.5781V12.4219ZM21.3359 12.4219H24.3359V9.42188H21.3359V12.4219ZM21.3359 28.2422V31.2422H24.3359V28.2422H21.3359ZM17.8203 28.2422H14.8203V31.2422H17.8203V28.2422ZM17.8203 14.1797H20.8203V11.1797H17.8203V14.1797ZM16.0625 14.1797H13.0625V17.1797H16.0625V14.1797ZM16.0625 12.4219H19.0625V9.42188H16.0625V12.4219ZM14.3047 12.4219V9.42188H11.3047V12.4219H14.3047ZM14.3047 28.2422V31.2422H17.3047V28.2422H14.3047ZM10.7891 28.2422H7.78906V31.2422H10.7891V28.2422ZM10.7891 12.4219H13.7891V9.42188H10.7891V12.4219ZM9.03125 12.4219V9.42188H6.03125V12.4219H9.03125ZM9.03125 14.1797V17.1797H12.0312V14.1797H9.03125ZM4.27344 14.1797V28.2422H10.2734V14.1797H4.27344ZM7.27344 25.2422H3.75781V31.2422H7.27344V25.2422ZM6.75781 28.2422V8.90625H0.757812V28.2422H6.75781ZM3.75781 11.9062H7.27344V5.90625H3.75781V11.9062ZM4.27344 8.90625V10.6641H10.2734V8.90625H4.27344ZM7.27344 13.6641H9.03125V7.66406H7.27344V13.6641ZM12.0312 10.6641V8.90625H6.03125V10.6641H12.0312ZM9.03125 11.9062H17.8203V5.90625H9.03125V11.9062ZM14.8203 8.90625V10.6641H20.8203V8.90625H14.8203ZM17.8203 13.6641H19.5781V7.66406H17.8203V13.6641ZM16.5781 10.6641V12.4219H22.5781V10.6641H16.5781ZM19.5781 15.4219H21.3359V9.42188H19.5781V15.4219ZM18.3359 12.4219V28.2422H24.3359V12.4219H18.3359ZM21.3359 25.2422H17.8203V31.2422H21.3359V25.2422ZM20.8203 28.2422V14.1797H14.8203V28.2422H20.8203ZM17.8203 11.1797H16.0625V17.1797H17.8203V11.1797ZM19.0625 14.1797V12.4219H13.0625V14.1797H19.0625ZM16.0625 9.42188H14.3047V15.4219H16.0625V9.42188ZM11.3047 12.4219V28.2422H17.3047V12.4219H11.3047ZM14.3047 25.2422H10.7891V31.2422H14.3047V25.2422ZM13.7891 28.2422V12.4219H7.78906V28.2422H13.7891ZM10.7891 9.42188H9.03125V15.4219H10.7891V9.42188ZM6.03125 12.4219V14.1797H12.0312V12.4219H6.03125ZM9.03125 11.1797H7.27344V17.1797H9.03125V11.1797ZM28.3672 28.2422H25.3672V31.2422H28.3672V28.2422ZM28.3672 24.7266V21.7266H25.3672V24.7266H28.3672ZM37.1562 24.7266V27.7266H40.1562V24.7266H37.1562ZM37.1562 22.9688V19.9688H34.1562V22.9688H37.1562ZM38.9141 22.9688V25.9688H41.9141V22.9688H38.9141ZM38.9141 17.6953H41.9141V14.6953H38.9141V17.6953ZM37.1562 17.6953V14.6953H34.1562V17.6953H37.1562ZM37.1562 19.4531V22.4531H40.1562V19.4531H37.1562ZM35.3984 19.4531V16.4531H32.3984V19.4531H35.3984ZM35.3984 21.2109V24.2109H38.3984V21.2109H35.3984ZM28.3672 21.2109H25.3672V24.2109H28.3672V21.2109ZM28.3672 19.4531H31.3672V16.4531H28.3672V19.4531ZM26.6094 19.4531H23.6094V22.4531H26.6094V19.4531ZM26.6094 17.6953H29.6094V14.6953H26.6094V17.6953ZM24.8516 17.6953H21.8516V20.6953H24.8516V17.6953ZM24.8516 7.14844V4.14844H21.8516V7.14844H24.8516ZM28.3672 7.14844H31.3672V4.14844H28.3672V7.14844ZM28.3672 15.9375H25.3672V18.9375H28.3672V15.9375ZM30.125 15.9375H33.125V12.9375H30.125V15.9375ZM30.125 17.6953H27.125V20.6953H30.125V17.6953ZM33.6406 17.6953V20.6953H36.6406V17.6953H33.6406ZM33.6406 15.9375V12.9375H30.6406V15.9375H33.6406ZM35.3984 15.9375V18.9375H38.3984V15.9375H35.3984ZM35.3984 14.1797V11.1797H32.3984V14.1797H35.3984ZM37.1562 14.1797V17.1797H40.1562V14.1797H37.1562ZM37.1562 10.6641V7.66406H34.1562V10.6641H37.1562ZM38.9141 10.6641V13.6641H41.9141V10.6641H38.9141ZM38.9141 7.14844V4.14844H35.9141V7.14844H38.9141ZM42.4297 7.14844H45.4297V4.14844H42.4297V7.14844ZM42.4297 24.7266V27.7266H45.4297V24.7266H42.4297ZM40.6719 24.7266V21.7266H37.6719V24.7266H40.6719ZM40.6719 26.4844V29.4844H43.6719V26.4844H40.6719ZM38.9141 26.4844V23.4844H35.9141V26.4844H38.9141ZM38.9141 28.2422V31.2422H41.9141V28.2422H38.9141ZM31.3672 28.2422V24.7266H25.3672V28.2422H31.3672ZM28.3672 27.7266H37.1562V21.7266H28.3672V27.7266ZM40.1562 24.7266V22.9688H34.1562V24.7266H40.1562ZM37.1562 25.9688H38.9141V19.9688H37.1562V25.9688ZM41.9141 22.9688V17.6953H35.9141V22.9688H41.9141ZM38.9141 14.6953H37.1562V20.6953H38.9141V14.6953ZM34.1562 17.6953V19.4531H40.1562V17.6953H34.1562ZM37.1562 16.4531H35.3984V22.4531H37.1562V16.4531ZM32.3984 19.4531V21.2109H38.3984V19.4531H32.3984ZM35.3984 18.2109H28.3672V24.2109H35.3984V18.2109ZM31.3672 21.2109V19.4531H25.3672V21.2109H31.3672ZM28.3672 16.4531H26.6094V22.4531H28.3672V16.4531ZM29.6094 19.4531V17.6953H23.6094V19.4531H29.6094ZM26.6094 14.6953H24.8516V20.6953H26.6094V14.6953ZM27.8516 17.6953V7.14844H21.8516V17.6953H27.8516ZM24.8516 10.1484H28.3672V4.14844H24.8516V10.1484ZM25.3672 7.14844V15.9375H31.3672V7.14844H25.3672ZM28.3672 18.9375H30.125V12.9375H28.3672V18.9375ZM27.125 15.9375V17.6953H33.125V15.9375H27.125ZM30.125 20.6953H33.6406V14.6953H30.125V20.6953ZM36.6406 17.6953V15.9375H30.6406V17.6953H36.6406ZM33.6406 18.9375H35.3984V12.9375H33.6406V18.9375ZM38.3984 15.9375V14.1797H32.3984V15.9375H38.3984ZM35.3984 17.1797H37.1562V11.1797H35.3984V17.1797ZM40.1562 14.1797V10.6641H34.1562V14.1797H40.1562ZM37.1562 13.6641H38.9141V7.66406H37.1562V13.6641ZM41.9141 10.6641V7.14844H35.9141V10.6641H41.9141ZM38.9141 10.1484H42.4297V4.14844H38.9141V10.1484ZM39.4297 7.14844V24.7266H45.4297V7.14844H39.4297ZM42.4297 21.7266H40.6719V27.7266H42.4297V21.7266ZM37.6719 24.7266V26.4844H43.6719V24.7266H37.6719ZM40.6719 23.4844H38.9141V29.4844H40.6719V23.4844ZM35.9141 26.4844V28.2422H41.9141V26.4844H35.9141ZM38.9141 25.2422H28.3672V31.2422H38.9141V25.2422ZM81.1016 12.4219H84.1016V9.42188H81.1016V12.4219ZM79.3438 12.4219H76.3438V15.4219H79.3438V12.4219ZM79.3438 10.6641H82.3438V7.66406H79.3438V10.6641ZM74.0703 10.6641V7.66406H71.0703V10.6641H74.0703ZM74.0703 12.4219V15.4219H77.0703V12.4219H74.0703ZM72.3125 12.4219V9.42188H69.3125V12.4219H72.3125ZM72.3125 17.6953H69.3125V20.6953H72.3125V17.6953ZM74.0703 17.6953H77.0703V14.6953H74.0703V17.6953ZM74.0703 19.4531H71.0703V22.4531H74.0703V19.4531ZM79.3438 19.4531V22.4531H82.3438V19.4531H79.3438ZM79.3438 17.6953V14.6953H76.3438V17.6953H79.3438ZM81.1016 17.6953V20.6953H84.1016V17.6953H81.1016ZM70.5547 21.2109V18.2109H67.5547V21.2109H70.5547ZM70.5547 28.2422V31.2422H73.5547V28.2422H70.5547ZM67.0391 28.2422H64.0391V31.2422H67.0391V28.2422ZM67.0391 7.14844V4.14844H64.0391V7.14844H67.0391ZM70.5547 7.14844H73.5547V4.14844H70.5547V7.14844ZM70.5547 8.90625H67.5547V11.9062H70.5547V8.90625ZM72.3125 8.90625V11.9062H75.3125V8.90625H72.3125ZM72.3125 7.14844V4.14844H69.3125V7.14844H72.3125ZM81.1016 7.14844H84.1016V4.14844H81.1016V7.14844ZM81.1016 8.90625H78.1016V11.9062H81.1016V8.90625ZM82.8594 8.90625H85.8594V5.90625H82.8594V8.90625ZM82.8594 10.6641H79.8594V13.6641H82.8594V10.6641ZM84.6172 10.6641H87.6172V7.66406H84.6172V10.6641ZM84.6172 19.4531V22.4531H87.6172V19.4531H84.6172ZM82.8594 19.4531V16.4531H79.8594V19.4531H82.8594ZM82.8594 21.2109V24.2109H85.8594V21.2109H82.8594ZM81.1016 21.2109V18.2109H78.1016V21.2109H81.1016ZM81.1016 22.9688V25.9688H84.1016V22.9688H81.1016ZM72.3125 22.9688H69.3125V25.9688H72.3125V22.9688ZM72.3125 21.2109H75.3125V18.2109H72.3125V21.2109ZM81.1016 9.42188H79.3438V15.4219H81.1016V9.42188ZM82.3438 12.4219V10.6641H76.3438V12.4219H82.3438ZM79.3438 7.66406H74.0703V13.6641H79.3438V7.66406ZM71.0703 10.6641V12.4219H77.0703V10.6641H71.0703ZM74.0703 9.42188H72.3125V15.4219H74.0703V9.42188ZM69.3125 12.4219V17.6953H75.3125V12.4219H69.3125ZM72.3125 20.6953H74.0703V14.6953H72.3125V20.6953ZM71.0703 17.6953V19.4531H77.0703V17.6953H71.0703ZM74.0703 22.4531H79.3438V16.4531H74.0703V22.4531ZM82.3438 19.4531V17.6953H76.3438V19.4531H82.3438ZM79.3438 20.6953H81.1016V14.6953H79.3438V20.6953ZM84.1016 17.6953V12.4219H78.1016V17.6953H84.1016ZM67.5547 21.2109V28.2422H73.5547V21.2109H67.5547ZM70.5547 25.2422H67.0391V31.2422H70.5547V25.2422ZM70.0391 28.2422V7.14844H64.0391V28.2422H70.0391ZM67.0391 10.1484H70.5547V4.14844H67.0391V10.1484ZM67.5547 7.14844V8.90625H73.5547V7.14844H67.5547ZM70.5547 11.9062H72.3125V5.90625H70.5547V11.9062ZM75.3125 8.90625V7.14844H69.3125V8.90625H75.3125ZM72.3125 10.1484H81.1016V4.14844H72.3125V10.1484ZM78.1016 7.14844V8.90625H84.1016V7.14844H78.1016ZM81.1016 11.9062H82.8594V5.90625H81.1016V11.9062ZM79.8594 8.90625V10.6641H85.8594V8.90625H79.8594ZM82.8594 13.6641H84.6172V7.66406H82.8594V13.6641ZM81.6172 10.6641V19.4531H87.6172V10.6641H81.6172ZM84.6172 16.4531H82.8594V22.4531H84.6172V16.4531ZM79.8594 19.4531V21.2109H85.8594V19.4531H79.8594ZM82.8594 18.2109H81.1016V24.2109H82.8594V18.2109ZM78.1016 21.2109V22.9688H84.1016V21.2109H78.1016ZM81.1016 19.9688H72.3125V25.9688H81.1016V19.9688ZM75.3125 22.9688V21.2109H69.3125V22.9688H75.3125ZM72.3125 18.2109H70.5547V24.2109H72.3125V18.2109ZM93.4062 24.7266H90.4062V27.7266H93.4062V24.7266ZM100.438 24.7266V27.7266H103.438V24.7266H100.438ZM100.438 22.9688V19.9688H97.4375V22.9688H100.438ZM102.195 22.9688V25.9688H105.195V22.9688H102.195ZM102.195 14.1797H105.195V11.1797H102.195V14.1797ZM100.438 14.1797H97.4375V17.1797H100.438V14.1797ZM100.438 12.4219H103.438V9.42188H100.438V12.4219ZM93.4062 12.4219V9.42188H90.4062V12.4219H93.4062ZM93.4062 14.1797V17.1797H96.4062V14.1797H93.4062ZM91.6484 14.1797V11.1797H88.6484V14.1797H91.6484ZM91.6484 22.9688H88.6484V25.9688H91.6484V22.9688ZM93.4062 22.9688H96.4062V19.9688H93.4062V22.9688ZM91.6484 28.2422H88.6484V31.2422H91.6484V28.2422ZM91.6484 26.4844H94.6484V23.4844H91.6484V26.4844ZM89.8906 26.4844H86.8906V29.4844H89.8906V26.4844ZM89.8906 24.7266H92.8906V21.7266H89.8906V24.7266ZM88.1328 24.7266H85.1328V27.7266H88.1328V24.7266ZM88.1328 12.4219V9.42188H85.1328V12.4219H88.1328ZM89.8906 12.4219V15.4219H92.8906V12.4219H89.8906ZM89.8906 10.6641V7.66406H86.8906V10.6641H89.8906ZM91.6484 10.6641V13.6641H94.6484V10.6641H91.6484ZM91.6484 8.90625V5.90625H88.6484V8.90625H91.6484ZM102.195 8.90625H105.195V5.90625H102.195V8.90625ZM102.195 10.6641H99.1953V13.6641H102.195V10.6641ZM103.953 10.6641H106.953V7.66406H103.953V10.6641ZM103.953 12.4219H100.953V15.4219H103.953V12.4219ZM105.711 12.4219H108.711V9.42188H105.711V12.4219ZM105.711 24.7266V27.7266H108.711V24.7266H105.711ZM103.953 24.7266V21.7266H100.953V24.7266H103.953ZM103.953 26.4844V29.4844H106.953V26.4844H103.953ZM102.195 26.4844V23.4844H99.1953V26.4844H102.195ZM102.195 28.2422V31.2422H105.195V28.2422H102.195ZM93.4062 27.7266H100.438V21.7266H93.4062V27.7266ZM103.438 24.7266V22.9688H97.4375V24.7266H103.438ZM100.438 25.9688H102.195V19.9688H100.438V25.9688ZM105.195 22.9688V14.1797H99.1953V22.9688H105.195ZM102.195 11.1797H100.438V17.1797H102.195V11.1797ZM103.438 14.1797V12.4219H97.4375V14.1797H103.438ZM100.438 9.42188H93.4062V15.4219H100.438V9.42188ZM90.4062 12.4219V14.1797H96.4062V12.4219H90.4062ZM93.4062 11.1797H91.6484V17.1797H93.4062V11.1797ZM88.6484 14.1797V22.9688H94.6484V14.1797H88.6484ZM91.6484 25.9688H93.4062V19.9688H91.6484V25.9688ZM90.4062 22.9688V24.7266H96.4062V22.9688H90.4062ZM94.6484 28.2422V26.4844H88.6484V28.2422H94.6484ZM91.6484 23.4844H89.8906V29.4844H91.6484V23.4844ZM92.8906 26.4844V24.7266H86.8906V26.4844H92.8906ZM89.8906 21.7266H88.1328V27.7266H89.8906V21.7266ZM91.1328 24.7266V12.4219H85.1328V24.7266H91.1328ZM88.1328 15.4219H89.8906V9.42188H88.1328V15.4219ZM92.8906 12.4219V10.6641H86.8906V12.4219H92.8906ZM89.8906 13.6641H91.6484V7.66406H89.8906V13.6641ZM94.6484 10.6641V8.90625H88.6484V10.6641H94.6484ZM91.6484 11.9062H102.195V5.90625H91.6484V11.9062ZM99.1953 8.90625V10.6641H105.195V8.90625H99.1953ZM102.195 13.6641H103.953V7.66406H102.195V13.6641ZM100.953 10.6641V12.4219H106.953V10.6641H100.953ZM103.953 15.4219H105.711V9.42188H103.953V15.4219ZM102.711 12.4219V24.7266H108.711V12.4219H102.711ZM105.711 21.7266H103.953V27.7266H105.711V21.7266ZM100.953 24.7266V26.4844H106.953V24.7266H100.953ZM103.953 23.4844H102.195V29.4844H103.953V23.4844ZM99.1953 26.4844V28.2422H105.195V26.4844H99.1953ZM102.195 25.2422H91.6484V31.2422H102.195V25.2422ZM112.742 17.6953V14.6953H109.742V17.6953H112.742ZM112.742 28.2422V31.2422H115.742V28.2422H112.742ZM109.227 28.2422H106.227V31.2422H109.227V28.2422ZM109.227 8.90625V5.90625H106.227V8.90625H109.227ZM112.742 8.90625H115.742V5.90625H112.742V8.90625ZM112.742 12.4219H109.742V15.4219H112.742V12.4219ZM114.5 12.4219V15.4219H117.5V12.4219H114.5ZM114.5 10.6641V7.66406H111.5V10.6641H114.5ZM116.258 10.6641V13.6641H119.258V10.6641H116.258ZM116.258 8.90625V5.90625H113.258V8.90625H116.258ZM123.289 8.90625H126.289V5.90625H123.289V8.90625ZM123.289 10.6641H120.289V13.6641H123.289V10.6641ZM125.047 10.6641H128.047V7.66406H125.047V10.6641ZM125.047 12.4219H122.047V15.4219H125.047V12.4219ZM126.805 12.4219H129.805V9.42188H126.805V12.4219ZM126.805 15.9375V18.9375H129.805V15.9375H126.805ZM123.289 15.9375H120.289V18.9375H123.289V15.9375ZM123.289 14.1797H126.289V11.1797H123.289V14.1797ZM121.531 14.1797H118.531V17.1797H121.531V14.1797ZM121.531 12.4219H124.531V9.42188H121.531V12.4219ZM118.016 12.4219V9.42188H115.016V12.4219H118.016ZM118.016 14.1797V17.1797H121.016V14.1797H118.016ZM116.258 14.1797V11.1797H113.258V14.1797H116.258ZM116.258 15.9375V18.9375H119.258V15.9375H116.258ZM114.5 15.9375V12.9375H111.5V15.9375H114.5ZM114.5 17.6953V20.6953H117.5V17.6953H114.5ZM109.742 17.6953V28.2422H115.742V17.6953H109.742ZM112.742 25.2422H109.227V31.2422H112.742V25.2422ZM112.227 28.2422V8.90625H106.227V28.2422H112.227ZM109.227 11.9062H112.742V5.90625H109.227V11.9062ZM109.742 8.90625V12.4219H115.742V8.90625H109.742ZM112.742 15.4219H114.5V9.42188H112.742V15.4219ZM117.5 12.4219V10.6641H111.5V12.4219H117.5ZM114.5 13.6641H116.258V7.66406H114.5V13.6641ZM119.258 10.6641V8.90625H113.258V10.6641H119.258ZM116.258 11.9062H123.289V5.90625H116.258V11.9062ZM120.289 8.90625V10.6641H126.289V8.90625H120.289ZM123.289 13.6641H125.047V7.66406H123.289V13.6641ZM122.047 10.6641V12.4219H128.047V10.6641H122.047ZM125.047 15.4219H126.805V9.42188H125.047V15.4219ZM123.805 12.4219V15.9375H129.805V12.4219H123.805ZM126.805 12.9375H123.289V18.9375H126.805V12.9375ZM126.289 15.9375V14.1797H120.289V15.9375H126.289ZM123.289 11.1797H121.531V17.1797H123.289V11.1797ZM124.531 14.1797V12.4219H118.531V14.1797H124.531ZM121.531 9.42188H118.016V15.4219H121.531V9.42188ZM115.016 12.4219V14.1797H121.016V12.4219H115.016ZM118.016 11.1797H116.258V17.1797H118.016V11.1797ZM113.258 14.1797V15.9375H119.258V14.1797H113.258ZM116.258 12.9375H114.5V18.9375H116.258V12.9375ZM111.5 15.9375V17.6953H117.5V15.9375H111.5ZM114.5 14.6953H112.742V20.6953H114.5V14.6953ZM142.625 24.7266H139.625V27.7266H142.625V24.7266ZM144.383 24.7266H147.383V21.7266H144.383V24.7266ZM144.383 28.2422V31.2422H147.383V28.2422H144.383ZM140.867 28.2422H137.867V31.2422H140.867V28.2422ZM140.867 26.4844H143.867V23.4844H140.867V26.4844ZM139.109 26.4844H136.109V29.4844H139.109V26.4844ZM139.109 24.7266H142.109V21.7266H139.109V24.7266ZM137.352 24.7266H134.352V27.7266H137.352V24.7266ZM137.352 12.4219H140.352V9.42188H137.352V12.4219ZM133.836 12.4219H130.836V15.4219H133.836V12.4219ZM133.836 8.90625V5.90625H130.836V8.90625H133.836ZM137.352 8.90625V11.9062H140.352V8.90625H137.352ZM137.352 3.63281V0.632812H134.352V3.63281H137.352ZM140.867 3.63281H143.867V0.632812H140.867V3.63281ZM140.867 8.90625H137.867V11.9062H140.867V8.90625ZM144.383 8.90625H147.383V5.90625H144.383V8.90625ZM144.383 12.4219V15.4219H147.383V12.4219H144.383ZM140.867 12.4219V9.42188H137.867V12.4219H140.867ZM140.867 22.9688H137.867V25.9688H140.867V22.9688ZM142.625 22.9688H145.625V19.9688H142.625V22.9688ZM142.625 27.7266H144.383V21.7266H142.625V27.7266ZM141.383 24.7266V28.2422H147.383V24.7266H141.383ZM144.383 25.2422H140.867V31.2422H144.383V25.2422ZM143.867 28.2422V26.4844H137.867V28.2422H143.867ZM140.867 23.4844H139.109V29.4844H140.867V23.4844ZM142.109 26.4844V24.7266H136.109V26.4844H142.109ZM139.109 21.7266H137.352V27.7266H139.109V21.7266ZM140.352 24.7266V12.4219H134.352V24.7266H140.352ZM137.352 9.42188H133.836V15.4219H137.352V9.42188ZM136.836 12.4219V8.90625H130.836V12.4219H136.836ZM133.836 11.9062H137.352V5.90625H133.836V11.9062ZM140.352 8.90625V3.63281H134.352V8.90625H140.352ZM137.352 6.63281H140.867V0.632812H137.352V6.63281ZM137.867 3.63281V8.90625H143.867V3.63281H137.867ZM140.867 11.9062H144.383V5.90625H140.867V11.9062ZM141.383 8.90625V12.4219H147.383V8.90625H141.383ZM144.383 9.42188H140.867V15.4219H144.383V9.42188ZM137.867 12.4219V22.9688H143.867V12.4219H137.867ZM140.867 25.9688H142.625V19.9688H140.867V25.9688ZM139.625 22.9688V24.7266H145.625V22.9688H139.625ZM161.961 28.2422V31.2422H164.961V28.2422H161.961ZM158.445 28.2422H155.445V31.2422H158.445V28.2422ZM158.445 12.4219H161.445V9.42188H158.445V12.4219ZM153.172 12.4219H150.172V15.4219H153.172V12.4219ZM153.172 8.90625V5.90625H150.172V8.90625H153.172ZM158.445 8.90625V11.9062H161.445V8.90625H158.445ZM158.445 5.39062V2.39062H155.445V5.39062H158.445ZM160.203 5.39062V8.39062H163.203V5.39062H160.203ZM160.203 3.63281V0.632812H157.203V3.63281H160.203ZM167.234 3.63281H170.234V0.632812H167.234V3.63281ZM167.234 7.14844V10.1484H170.234V7.14844H167.234ZM161.961 7.14844V4.14844H158.961V7.14844H161.961ZM161.961 8.90625H158.961V11.9062H161.961V8.90625ZM167.234 8.90625H170.234V5.90625H167.234V8.90625ZM167.234 12.4219V15.4219H170.234V12.4219H167.234ZM161.961 12.4219V9.42188H158.961V12.4219H161.961ZM161.961 25.2422H158.445V31.2422H161.961V25.2422ZM161.445 28.2422V12.4219H155.445V28.2422H161.445ZM158.445 9.42188H153.172V15.4219H158.445V9.42188ZM156.172 12.4219V8.90625H150.172V12.4219H156.172ZM153.172 11.9062H158.445V5.90625H153.172V11.9062ZM161.445 8.90625V5.39062H155.445V8.90625H161.445ZM158.445 8.39062H160.203V2.39062H158.445V8.39062ZM163.203 5.39062V3.63281H157.203V5.39062H163.203ZM160.203 6.63281H167.234V0.632812H160.203V6.63281ZM164.234 3.63281V7.14844H170.234V3.63281H164.234ZM167.234 4.14844H161.961V10.1484H167.234V4.14844ZM158.961 7.14844V8.90625H164.961V7.14844H158.961ZM161.961 11.9062H167.234V5.90625H161.961V11.9062ZM164.234 8.90625V12.4219H170.234V8.90625H164.234ZM167.234 9.42188H161.961V15.4219H167.234V9.42188ZM158.961 12.4219V28.2422H164.961V12.4219H158.961ZM177.781 24.7266H174.781V27.7266H177.781V24.7266ZM184.812 24.7266V27.7266H187.812V24.7266H184.812ZM184.812 22.9688V19.9688H181.812V22.9688H184.812ZM186.57 22.9688V25.9688H189.57V22.9688H186.57ZM186.57 14.1797H189.57V11.1797H186.57V14.1797ZM184.812 14.1797H181.812V17.1797H184.812V14.1797ZM184.812 12.4219H187.812V9.42188H184.812V12.4219ZM177.781 12.4219V9.42188H174.781V12.4219H177.781ZM177.781 14.1797V17.1797H180.781V14.1797H177.781ZM176.023 14.1797V11.1797H173.023V14.1797H176.023ZM176.023 22.9688H173.023V25.9688H176.023V22.9688ZM177.781 22.9688H180.781V19.9688H177.781V22.9688ZM176.023 28.2422H173.023V31.2422H176.023V28.2422ZM176.023 26.4844H179.023V23.4844H176.023V26.4844ZM174.266 26.4844H171.266V29.4844H174.266V26.4844ZM174.266 24.7266H177.266V21.7266H174.266V24.7266ZM172.508 24.7266H169.508V27.7266H172.508V24.7266ZM172.508 12.4219V9.42188H169.508V12.4219H172.508ZM174.266 12.4219V15.4219H177.266V12.4219H174.266ZM174.266 10.6641V7.66406H171.266V10.6641H174.266ZM176.023 10.6641V13.6641H179.023V10.6641H176.023ZM176.023 8.90625V5.90625H173.023V8.90625H176.023ZM186.57 8.90625H189.57V5.90625H186.57V8.90625ZM186.57 10.6641H183.57V13.6641H186.57V10.6641ZM188.328 10.6641H191.328V7.66406H188.328V10.6641ZM188.328 12.4219H185.328V15.4219H188.328V12.4219ZM190.086 12.4219H193.086V9.42188H190.086V12.4219ZM190.086 24.7266V27.7266H193.086V24.7266H190.086ZM188.328 24.7266V21.7266H185.328V24.7266H188.328ZM188.328 26.4844V29.4844H191.328V26.4844H188.328ZM186.57 26.4844V23.4844H183.57V26.4844H186.57ZM186.57 28.2422V31.2422H189.57V28.2422H186.57ZM177.781 27.7266H184.812V21.7266H177.781V27.7266ZM187.812 24.7266V22.9688H181.812V24.7266H187.812ZM184.812 25.9688H186.57V19.9688H184.812V25.9688ZM189.57 22.9688V14.1797H183.57V22.9688H189.57ZM186.57 11.1797H184.812V17.1797H186.57V11.1797ZM187.812 14.1797V12.4219H181.812V14.1797H187.812ZM184.812 9.42188H177.781V15.4219H184.812V9.42188ZM174.781 12.4219V14.1797H180.781V12.4219H174.781ZM177.781 11.1797H176.023V17.1797H177.781V11.1797ZM173.023 14.1797V22.9688H179.023V14.1797H173.023ZM176.023 25.9688H177.781V19.9688H176.023V25.9688ZM174.781 22.9688V24.7266H180.781V22.9688H174.781ZM179.023 28.2422V26.4844H173.023V28.2422H179.023ZM176.023 23.4844H174.266V29.4844H176.023V23.4844ZM177.266 26.4844V24.7266H171.266V26.4844H177.266ZM174.266 21.7266H172.508V27.7266H174.266V21.7266ZM175.508 24.7266V12.4219H169.508V24.7266H175.508ZM172.508 15.4219H174.266V9.42188H172.508V15.4219ZM177.266 12.4219V10.6641H171.266V12.4219H177.266ZM174.266 13.6641H176.023V7.66406H174.266V13.6641ZM179.023 10.6641V8.90625H173.023V10.6641H179.023ZM176.023 11.9062H186.57V5.90625H176.023V11.9062ZM183.57 8.90625V10.6641H189.57V8.90625H183.57ZM186.57 13.6641H188.328V7.66406H186.57V13.6641ZM185.328 10.6641V12.4219H191.328V10.6641H185.328ZM188.328 15.4219H190.086V9.42188H188.328V15.4219ZM187.086 12.4219V24.7266H193.086V12.4219H187.086ZM190.086 21.7266H188.328V27.7266H190.086V21.7266ZM185.328 24.7266V26.4844H191.328V24.7266H185.328ZM188.328 23.4844H186.57V29.4844H188.328V23.4844ZM183.57 26.4844V28.2422H189.57V26.4844H183.57ZM186.57 25.2422H176.023V31.2422H186.57V25.2422ZM204.148 3.63281H207.148V0.632812H204.148V3.63281ZM204.148 28.2422V31.2422H207.148V28.2422H204.148ZM200.633 28.2422H197.633V31.2422H200.633V28.2422ZM200.633 3.63281V0.632812H197.633V3.63281H200.633ZM201.148 3.63281V28.2422H207.148V3.63281H201.148ZM204.148 25.2422H200.633V31.2422H204.148V25.2422ZM203.633 28.2422V3.63281H197.633V28.2422H203.633ZM200.633 6.63281H204.148V0.632812H200.633V6.63281ZM225.242 5.39062H228.242V2.39062H225.242V5.39062ZM225.242 8.90625V11.9062H228.242V8.90625H225.242ZM221.727 8.90625H218.727V11.9062H221.727V8.90625ZM221.727 5.39062V2.39062H218.727V5.39062H221.727ZM227 24.7266H224V27.7266H227V24.7266ZM228.758 24.7266H231.758V21.7266H228.758V24.7266ZM228.758 28.2422V31.2422H231.758V28.2422H228.758ZM225.242 28.2422H222.242V31.2422H225.242V28.2422ZM225.242 26.4844H228.242V23.4844H225.242V26.4844ZM223.484 26.4844H220.484V29.4844H223.484V26.4844ZM223.484 24.7266H226.484V21.7266H223.484V24.7266ZM221.727 24.7266H218.727V27.7266H221.727V24.7266ZM221.727 15.9375H224.727V12.9375H221.727V15.9375ZM218.211 15.9375H215.211V18.9375H218.211V15.9375ZM218.211 12.4219V9.42188H215.211V12.4219H218.211ZM225.242 12.4219H228.242V9.42188H225.242V12.4219ZM225.242 22.9688H222.242V25.9688H225.242V22.9688ZM227 22.9688H230V19.9688H227V22.9688ZM222.242 5.39062V8.90625H228.242V5.39062H222.242ZM225.242 5.90625H221.727V11.9062H225.242V5.90625ZM224.727 8.90625V5.39062H218.727V8.90625H224.727ZM221.727 8.39062H225.242V2.39062H221.727V8.39062ZM227 27.7266H228.758V21.7266H227V27.7266ZM225.758 24.7266V28.2422H231.758V24.7266H225.758ZM228.758 25.2422H225.242V31.2422H228.758V25.2422ZM228.242 28.2422V26.4844H222.242V28.2422H228.242ZM225.242 23.4844H223.484V29.4844H225.242V23.4844ZM226.484 26.4844V24.7266H220.484V26.4844H226.484ZM223.484 21.7266H221.727V27.7266H223.484V21.7266ZM224.727 24.7266V15.9375H218.727V24.7266H224.727ZM221.727 12.9375H218.211V18.9375H221.727V12.9375ZM221.211 15.9375V12.4219H215.211V15.9375H221.211ZM218.211 15.4219H225.242V9.42188H218.211V15.4219ZM222.242 12.4219V22.9688H228.242V12.4219H222.242ZM225.242 25.9688H227V19.9688H225.242V25.9688ZM224 22.9688V24.7266H230V22.9688H224ZM241.062 24.7266H238.062V27.7266H241.062V24.7266ZM248.094 24.7266V27.7266H251.094V24.7266H248.094ZM248.094 22.9688V19.9688H245.094V22.9688H248.094ZM249.852 22.9688V25.9688H252.852V22.9688H249.852ZM249.852 14.1797H252.852V11.1797H249.852V14.1797ZM248.094 14.1797H245.094V17.1797H248.094V14.1797ZM248.094 12.4219H251.094V9.42188H248.094V12.4219ZM241.062 12.4219V9.42188H238.062V12.4219H241.062ZM241.062 14.1797V17.1797H244.062V14.1797H241.062ZM239.305 14.1797V11.1797H236.305V14.1797H239.305ZM239.305 22.9688H236.305V25.9688H239.305V22.9688ZM241.062 22.9688H244.062V19.9688H241.062V22.9688ZM239.305 28.2422H236.305V31.2422H239.305V28.2422ZM239.305 26.4844H242.305V23.4844H239.305V26.4844ZM237.547 26.4844H234.547V29.4844H237.547V26.4844ZM237.547 24.7266H240.547V21.7266H237.547V24.7266ZM235.789 24.7266H232.789V27.7266H235.789V24.7266ZM235.789 12.4219V9.42188H232.789V12.4219H235.789ZM237.547 12.4219V15.4219H240.547V12.4219H237.547ZM237.547 10.6641V7.66406H234.547V10.6641H237.547ZM239.305 10.6641V13.6641H242.305V10.6641H239.305ZM239.305 8.90625V5.90625H236.305V8.90625H239.305ZM249.852 8.90625H252.852V5.90625H249.852V8.90625ZM249.852 10.6641H246.852V13.6641H249.852V10.6641ZM251.609 10.6641H254.609V7.66406H251.609V10.6641ZM251.609 12.4219H248.609V15.4219H251.609V12.4219ZM253.367 12.4219H256.367V9.42188H253.367V12.4219ZM253.367 24.7266V27.7266H256.367V24.7266H253.367ZM251.609 24.7266V21.7266H248.609V24.7266H251.609ZM251.609 26.4844V29.4844H254.609V26.4844H251.609ZM249.852 26.4844V23.4844H246.852V26.4844H249.852ZM249.852 28.2422V31.2422H252.852V28.2422H249.852ZM241.062 27.7266H248.094V21.7266H241.062V27.7266ZM251.094 24.7266V22.9688H245.094V24.7266H251.094ZM248.094 25.9688H249.852V19.9688H248.094V25.9688ZM252.852 22.9688V14.1797H246.852V22.9688H252.852ZM249.852 11.1797H248.094V17.1797H249.852V11.1797ZM251.094 14.1797V12.4219H245.094V14.1797H251.094ZM248.094 9.42188H241.062V15.4219H248.094V9.42188ZM238.062 12.4219V14.1797H244.062V12.4219H238.062ZM241.062 11.1797H239.305V17.1797H241.062V11.1797ZM236.305 14.1797V22.9688H242.305V14.1797H236.305ZM239.305 25.9688H241.062V19.9688H239.305V25.9688ZM238.062 22.9688V24.7266H244.062V22.9688H238.062ZM242.305 28.2422V26.4844H236.305V28.2422H242.305ZM239.305 23.4844H237.547V29.4844H239.305V23.4844ZM240.547 26.4844V24.7266H234.547V26.4844H240.547ZM237.547 21.7266H235.789V27.7266H237.547V21.7266ZM238.789 24.7266V12.4219H232.789V24.7266H238.789ZM235.789 15.4219H237.547V9.42188H235.789V15.4219ZM240.547 12.4219V10.6641H234.547V12.4219H240.547ZM237.547 13.6641H239.305V7.66406H237.547V13.6641ZM242.305 10.6641V8.90625H236.305V10.6641H242.305ZM239.305 11.9062H249.852V5.90625H239.305V11.9062ZM246.852 8.90625V10.6641H252.852V8.90625H246.852ZM249.852 13.6641H251.609V7.66406H249.852V13.6641ZM248.609 10.6641V12.4219H254.609V10.6641H248.609ZM251.609 15.4219H253.367V9.42188H251.609V15.4219ZM250.367 12.4219V24.7266H256.367V12.4219H250.367ZM253.367 21.7266H251.609V27.7266H253.367V21.7266ZM248.609 24.7266V26.4844H254.609V24.7266H248.609ZM251.609 23.4844H249.852V29.4844H251.609V23.4844ZM246.852 26.4844V28.2422H252.852V26.4844H246.852ZM249.852 25.2422H239.305V31.2422H249.852V25.2422Z" fill="black"/>
</svg>
